<svg height="496pt" viewBox="-64 0 496 496" width="496pt" xmlns="http://www.w3.org/2000/svg" xmlns:xlink="http://www.w3.org/1999/xlink"><linearGradient id="linear0" gradientUnits="userSpaceOnUse" x1="184" x2="184" y1="496" y2="0"><stop offset="0" stop-color="#9f2fff"/><stop offset="1" stop-color="#0bb1d3"/></linearGradient><path d="m88 96c-30.878906 0-56 25.121094-56 56v112h-8c-13.230469 0-24 10.769531-24 24v80c0 13.230469 10.769531 24 24 24h8c0 22.40625 13.265625 41.726562 32.320312 50.671875-5.121093 5.671875-8.320312 13.105469-8.320312 21.328125 0 17.648438 14.351562 32 32 32s32-14.351562 32-32c0-5.855469-1.695312-11.273438-4.457031-16h136.90625c-2.753907 4.726562-4.449219 10.144531-4.449219 16 0 17.648438 14.351562 32 32 32s32-14.351562 32-32c0-8.222656-3.199219-15.65625-8.320312-21.328125 19.054687-8.945313 32.320312-28.265625 32.320312-50.671875h8c13.230469 0 24-10.769531 24-24v-80c0-13.230469-10.769531-24-24-24h-8v-112c0-30.878906-25.121094-56-56-56h-16v-48h16c8.824219 0 16-7.175781 16-16v-16c0-8.824219-7.175781-16-16-16h-192c-8.824219 0-16 7.175781-16 16v16c0 8.824219 7.175781 16 16 16h16v48zm-64 280c-4.40625 0-8-3.59375-8-8v-80c0-4.40625 3.59375-8 8-8h8v96zm264 55.191406c-2.585938.527344-5.265625.808594-8 .808594h-8v-240c0-8.824219-7.175781-16-16-16h-32v-16h40c13.230469 0 24 10.769531 24 24zm-120-207.191406c6.167969 0 11.742188-2.40625 16-6.238281 4.257812 3.832031 9.832031 6.238281 16 6.238281 13.230469 0 24-10.769531 24-24v-8h32v48.808594c-13.457031 2.742187-24.375 12.304687-29.230469 24.863281l-42.769531 21.382813-42.769531-21.382813c-4.855469-12.558594-15.78125-22.121094-29.230469-24.863281v-48.808594h32v8c0 13.230469 10.769531 24 24 24zm88 206.519531c-9.296875-3.3125-16-12.113281-16-22.519531v-128c0-10.414062 6.703125-19.207031 16-22.527344zm-53.785156-38.6875 21.785156-10.886719v21.664063zm-36.101563-95.832031-22.113281 11.054688v-22.109376zm57.886719 59.054688-22.113281-11.054688 22.113281-11.054688zm-40-20-30.113281-15.054688 30.113281-15.054688 30.113281 15.054688zm-40-2.109376 22.113281 11.054688-22.113281 11.054688zm0 47.941407 22.289062 11.023437-22.289062 11.144532zm9.96875-12.925781 30.03125-15.015626 30.113281 15.054688-29.875 14.9375zm70.03125-60.90625-22.113281-11.054688 22.113281-11.054688zm-112-49.582032c9.296875 3.3125 16 12.113282 16 22.527344v128c0 10.414062-6.703125 19.207031-16 22.527344zm29.230469 164.863282 43.042969-21.519532 42.3125 20.9375c1.375 3.71875 3.261718 7.140625 5.613281 10.253906h-96.398438c2.222657-2.960937 4.078125-6.175781 5.429688-9.671874zm66.769531-222.335938c0 4.40625-3.59375 8-8 8s-8-3.59375-8-8v-40h16zm-32 0c0 4.40625-3.59375 8-8 8s-8-3.59375-8-8v-40h16zm-32-24h-32c-8.824219 0-16 7.175781-16 16v240h-8c-2.734375 0-5.414062-.28125-8-.808594v-247.191406c0-13.230469 10.769531-24 24-24h40zm-56 304c-8.824219 0-16-7.175781-16-16s7.175781-16 16-16 16 7.175781 16 16-7.175781 16-16 16zm208-16c0 8.824219-7.175781 16-16 16s-16-7.175781-16-16 7.175781-16 16-16 16 7.175781 16 16zm48-184c4.40625 0 8 3.59375 8 8v80c0 4.40625-3.59375 8-8 8h-8v-96zm-24-128v240c0 13.015625-6.34375 24.488281-16 31.800781v-239.800781c0-22.054688-17.945312-40-40-40h-160c-22.054688 0-40 17.945312-40 40v239.800781c-9.65625-7.3125-16-18.785156-16-31.800781v-240c0-22.054688 17.945312-40 40-40h192c22.054688 0 40 17.945312 40 40zm-104-104v48h-64v-48zm32 48h-16v-48h16zm-160-80h192l.007812 16h-192.007812zm32 32h16v48h-16zm0 0" fill="url(#linear0)"/></svg>